HIERARCHY
ROOT mixamorig9:Hips
{
	OFFSET 0.000000 96.790665 0.000000
	CHANNELS 6 Xposition Yposition Zposition Xrotation Yrotation Zrotation
	JOINT mixamorig9:Spine
	{
		OFFSET 0.000000 11.752701 -0.535200
		CHANNELS 3 Xrotation Yrotation Zrotation
		JOINT mixamorig9:Spine1
		{
			OFFSET 0.000000 13.711395 -0.624381
			CHANNELS 3 Xrotation Yrotation Zrotation
			JOINT mixamorig9:Spine2
			{
				OFFSET 0.000000 15.670166 -0.713579
				CHANNELS 3 Xrotation Yrotation Zrotation
				JOINT mixamorig9:Neck
				{
					OFFSET 0.000000 17.628937 -0.802776
					CHANNELS 3 Xrotation Yrotation Zrotation
					JOINT mixamorig9:Head
					{
						OFFSET 0.000000 5.016602 1.880200
						CHANNELS 3 Xrotation Yrotation Zrotation
						JOINT mixamorig9:HeadTop_End
						{
							OFFSET 0.000000 20.743408 7.774600
							CHANNELS 3 Xrotation Yrotation Zrotation
							End Site
							{
								OFFSET 0.000000 22.152496 0.000000
							}
						}
					}
				}
				JOINT mixamorig9:LeftShoulder
				{
					OFFSET 7.849700 14.755508 -0.786346
					CHANNELS 3 Xrotation Yrotation Zrotation
					JOINT mixamorig9:LeftArm
					{
						OFFSET 15.636079 -5.611938 0.032868
						CHANNELS 3 Xrotation Yrotation Zrotation
						JOINT mixamorig9:LeftForeArm
						{
							OFFSET 22.575607 0.000000 -0.000000
							CHANNELS 3 Xrotation Yrotation Zrotation
							JOINT mixamorig9:LeftHand
							{
								OFFSET 23.494789 0.000000 -0.000001
								CHANNELS 3 Xrotation Yrotation Zrotation
								JOINT mixamorig9:LeftHandThumb1
								{
									OFFSET 3.226456 -1.228531 2.654899
									CHANNELS 3 Xrotation Yrotation Zrotation
									JOINT mixamorig9:LeftHandThumb2
									{
										OFFSET 2.698822 -1.558167 1.558164
										CHANNELS 3 Xrotation Yrotation Zrotation
										JOINT mixamorig9:LeftHandThumb3
										{
											OFFSET 2.640388 -1.524429 1.524428
											CHANNELS 3 Xrotation Yrotation Zrotation
											JOINT mixamorig9:LeftHandThumb4
											{
												OFFSET 2.346039 -1.354492 1.354488
												CHANNELS 3 Xrotation Yrotation Zrotation
												End Site
												{
													OFFSET 2.071320 -1.315002 1.775847
												}
											}
										}
									}
								}
								JOINT mixamorig9:LeftHandIndex1
								{
									OFFSET 10.149338 -0.349152 2.573102
									CHANNELS 3 Xrotation Yrotation Zrotation
									JOINT mixamorig9:LeftHandIndex2
									{
										OFFSET 3.319489 0.000000 -0.000000
										CHANNELS 3 Xrotation Yrotation Zrotation
										JOINT mixamorig9:LeftHandIndex3
										{
											OFFSET 3.068123 0.000000 -0.000000
											CHANNELS 3 Xrotation Yrotation Zrotation
											JOINT mixamorig9:LeftHandIndex4
											{
												OFFSET 2.664124 0.000000 -0.000000
												CHANNELS 3 Xrotation Yrotation Zrotation
												End Site
												{
													OFFSET 2.664101 -0.000320 -0.011596
												}
											}
										}
									}
								}
								JOINT mixamorig9:LeftHandMiddle1
								{
									OFFSET 10.136444 0.000000 -0.000000
									CHANNELS 3 Xrotation Yrotation Zrotation
									JOINT mixamorig9:LeftHandMiddle2
									{
										OFFSET 3.520729 0.000000 -0.000000
										CHANNELS 3 Xrotation Yrotation Zrotation
										JOINT mixamorig9:LeftHandMiddle3
										{
											OFFSET 3.274651 0.000000 -0.000000
											CHANNELS 3 Xrotation Yrotation Zrotation
											JOINT mixamorig9:LeftHandMiddle4
											{
												OFFSET 2.918007 0.000000 -0.000000
												CHANNELS 3 Xrotation Yrotation Zrotation
												End Site
												{
													OFFSET 2.917999 0.000122 0.004498
												}
											}
										}
									}
								}
								JOINT mixamorig9:LeftHandRing1
								{
									OFFSET 10.015709 -0.081619 -2.141669
									CHANNELS 3 Xrotation Yrotation Zrotation
									JOINT mixamorig9:LeftHandRing2
									{
										OFFSET 2.742317 0.000000 0.000000
										CHANNELS 3 Xrotation Yrotation Zrotation
										JOINT mixamorig9:LeftHandRing3
										{
											OFFSET 2.844040 0.000000 0.000000
											CHANNELS 3 Xrotation Yrotation Zrotation
											JOINT mixamorig9:LeftHandRing4
											{
												OFFSET 2.134438 0.000000 0.000000
												CHANNELS 3 Xrotation Yrotation Zrotation
												End Site
												{
													OFFSET 2.134293 0.001083 0.023975
												}
											}
										}
									}
								}
								JOINT mixamorig9:LeftHandPinky1
								{
									OFFSET 8.705978 -0.316788 -4.359827
									CHANNELS 3 Xrotation Yrotation Zrotation
									JOINT mixamorig9:LeftHandPinky2
									{
										OFFSET 2.641701 0.000000 0.000000
										CHANNELS 3 Xrotation Yrotation Zrotation
										JOINT mixamorig9:LeftHandPinky3
										{
											OFFSET 2.201149 0.000000 0.000000
											CHANNELS 3 Xrotation Yrotation Zrotation
											JOINT mixamorig9:LeftHandPinky4
											{
												OFFSET 1.796135 0.000000 0.000000
												CHANNELS 3 Xrotation Yrotation Zrotation
												End Site
												{
													OFFSET 1.796097 0.000397 0.010792
												}
											}
										}
									}
								}
							}
						}
					}
				}
				JOINT mixamorig9:RightShoulder
				{
					OFFSET -7.849700 14.755508 -0.819180
					CHANNELS 3 Xrotation Yrotation Zrotation
					JOINT mixamorig9:RightArm
					{
						OFFSET -15.636075 -5.611954 -0.032881
						CHANNELS 3 Xrotation Yrotation Zrotation
						JOINT mixamorig9:RightForeArm
						{
							OFFSET -22.570602 0.000000 0.000001
							CHANNELS 3 Xrotation Yrotation Zrotation
							JOINT mixamorig9:RightHand
							{
								OFFSET -23.493404 0.000000 0.000001
								CHANNELS 3 Xrotation Yrotation Zrotation
								JOINT mixamorig9:RightHandThumb1
								{
									OFFSET -3.430145 -1.490677 2.732846
									CHANNELS 3 Xrotation Yrotation Zrotation
									JOINT mixamorig9:RightHandThumb2
									{
										OFFSET -2.870445 -1.657257 1.657251
										CHANNELS 3 Xrotation Yrotation Zrotation
										JOINT mixamorig9:RightHandThumb3
										{
											OFFSET -2.534035 -1.463028 1.463024
											CHANNELS 3 Xrotation Yrotation Zrotation
											JOINT mixamorig9:RightHandThumb4
											{
												OFFSET -1.987206 -1.147308 1.147314
												CHANNELS 3 Xrotation Yrotation Zrotation
												End Site
												{
													OFFSET -1.636826 -1.087112 1.649439
												}
											}
										}
									}
								}
								JOINT mixamorig9:RightHandIndex1
								{
									OFFSET -10.580772 -0.429199 2.789807
									CHANNELS 3 Xrotation Yrotation Zrotation
									JOINT mixamorig9:RightHandIndex2
									{
										OFFSET -3.088730 0.000000 0.000000
										CHANNELS 3 Xrotation Yrotation Zrotation
										JOINT mixamorig9:RightHandIndex3
										{
											OFFSET -2.968605 0.000000 0.000000
											CHANNELS 3 Xrotation Yrotation Zrotation
											JOINT mixamorig9:RightHandIndex4
											{
												OFFSET -2.463318 0.000000 0.000000
												CHANNELS 3 Xrotation Yrotation Zrotation
												End Site
												{
													OFFSET -2.463303 -0.000153 -0.008599
												}
											}
										}
									}
								}
								JOINT mixamorig9:RightHandMiddle1
								{
									OFFSET -10.255600 0.000000 0.000000
									CHANNELS 3 Xrotation Yrotation Zrotation
									JOINT mixamorig9:RightHandMiddle2
									{
										OFFSET -3.480217 0.000000 0.000000
										CHANNELS 3 Xrotation Yrotation Zrotation
										JOINT mixamorig9:RightHandMiddle3
										{
											OFFSET -3.263023 0.000000 0.000000
											CHANNELS 3 Xrotation Yrotation Zrotation
											JOINT mixamorig9:RightHandMiddle4
											{
												OFFSET -2.908302 0.000000 0.000000
												CHANNELS 3 Xrotation Yrotation Zrotation
												End Site
												{
													OFFSET -2.908295 0.000061 0.003200
												}
											}
										}
									}
								}
								JOINT mixamorig9:RightHandRing1
								{
									OFFSET -10.230232 -0.198181 -2.204008
									CHANNELS 3 Xrotation Yrotation Zrotation
									JOINT mixamorig9:RightHandRing2
									{
										OFFSET -2.884499 0.000000 0.000000
										CHANNELS 3 Xrotation Yrotation Zrotation
										JOINT mixamorig9:RightHandRing3
										{
											OFFSET -2.646408 0.000000 0.000000
											CHANNELS 3 Xrotation Yrotation Zrotation
											JOINT mixamorig9:RightHandRing4
											{
												OFFSET -2.253517 0.000000 0.000000
												CHANNELS 3 Xrotation Yrotation Zrotation
												End Site
												{
													OFFSET -2.253494 0.000244 0.008396
												}
											}
										}
									}
								}
								JOINT mixamorig9:RightHandPinky1
								{
									OFFSET -8.863297 -0.363922 -4.365403
									CHANNELS 3 Xrotation Yrotation Zrotation
									JOINT mixamorig9:RightHandPinky2
									{
										OFFSET -2.535202 0.000000 0.000000
										CHANNELS 3 Xrotation Yrotation Zrotation
										JOINT mixamorig9:RightHandPinky3
										{
											OFFSET -2.269936 0.000000 0.000000
											CHANNELS 3 Xrotation Yrotation Zrotation
											JOINT mixamorig9:RightHandPinky4
											{
												OFFSET -1.728821 0.000000 0.000000
												CHANNELS 3 Xrotation Yrotation Zrotation
												End Site
												{
													OFFSET -1.728798 0.000198 0.008398
												}
											}
										}
									}
								}
							}
						}
					}
				}
			}
		}
	}
	JOINT mixamorig9:LeftUpLeg
	{
		OFFSET 9.840400 -6.511497 0.952000
		CHANNELS 3 Xrotation Yrotation Zrotation
		JOINT mixamorig9:LeftLeg
		{
			OFFSET 0.627035 -41.050404 -3.190753
			CHANNELS 3 Xrotation Yrotation Zrotation
			JOINT mixamorig9:LeftFoot
			{
				OFFSET -0.627030 -35.319065 0.072882
				CHANNELS 3 Xrotation Yrotation Zrotation
				JOINT mixamorig9:LeftToeBase
				{
					OFFSET 1.465637 -12.398554 15.189803
					CHANNELS 3 Xrotation Yrotation Zrotation
					JOINT mixamorig9:LeftToe_End
					{
						OFFSET 0.862418 0.262531 7.818803
						CHANNELS 3 Xrotation Yrotation Zrotation
						End Site
						{
							OFFSET 0.862418 0.262531 7.818802
						}
					}
				}
			}
		}
	}
	JOINT mixamorig9:RightUpLeg
	{
		OFFSET -9.840400 -6.511497 0.242600
		CHANNELS 3 Xrotation Yrotation Zrotation
		JOINT mixamorig9:RightLeg
		{
			OFFSET -0.627002 -41.050419 -2.758945
			CHANNELS 3 Xrotation Yrotation Zrotation
			JOINT mixamorig9:RightFoot
			{
				OFFSET 0.627006 -35.319042 0.384006
				CHANNELS 3 Xrotation Yrotation Zrotation
				JOINT mixamorig9:RightToeBase
				{
					OFFSET -1.465701 -12.398558 15.694283
					CHANNELS 3 Xrotation Yrotation Zrotation
					JOINT mixamorig9:RightToe_End
					{
						OFFSET -0.862436 0.262525 7.962027
						CHANNELS 3 Xrotation Yrotation Zrotation
						End Site
						{
							OFFSET -0.862436 0.262525 7.962027
						}
					}
				}
			}
		}
	}
}
MOTION
Frames: 4
Frame Time: 0.033333
0.173390 96.258156 -0.813087 -3.750057 -5.239058 -3.251900 3.313405 1.526642 2.228280 1.155680 0.337004 1.565521 1.126249 0.358053 1.563177 5.626590 -0.091246 0.452320 5.621571 -0.107041 0.491953 0.000000 -0.000000 -0.000000 1.045141 -17.452277 -12.322871 3.914780 -19.989539 -69.769617 0.000006 -1.459353 0.000014 -33.230414 -1.364798 -6.186613 -0.668503 2.159370 4.844612 11.851401 25.416476 17.057134 -13.813211 3.538597 9.032360 -0.000001 -0.000001 -0.000001 0.019874 -0.969580 -7.593519 0.267860 1.752895 -17.375714 0.057689 0.820952 -8.038008 -0.000000 0.000000 0.000005 -0.078228 2.658942 -15.697484 0.268787 1.755804 -17.405496 0.300523 1.853977 -18.413336 -0.000001 0.000002 0.000007 0.136898 3.641780 -21.133515 0.386630 2.094789 -20.911901 0.283164 1.801036 -17.869006 -0.000000 0.000001 0.000004 0.923209 5.558218 -27.127633 0.268793 1.755848 -17.405870 0.241920 1.667706 -16.505876 -0.000000 0.000001 0.000001 1.195052 15.341544 14.705339 13.158852 27.555138 58.785150 -0.000003 6.693742 0.000016 -20.189786 -0.512218 6.772429 -1.661708 -0.174251 -4.218878 12.722962 -29.825992 -16.122286 -15.548410 -3.563937 -12.705357 -0.000002 -0.000002 0.000003 0.038220 1.262251 6.823715 0.213723 -1.396027 17.407012 0.046022 -0.653847 8.053214 -0.000002 0.000001 0.000000 -0.136215 -2.205107 14.998860 0.214440 -1.398354 17.436880 0.239763 -1.476519 18.446273 -0.000001 0.000000 0.000001 0.030616 -3.075768 20.451022 0.308438 -1.668276 20.948532 0.225835 -1.434050 17.897088 0.000001 -0.000002 -0.000003 0.748984 -4.885195 26.473765 0.214471 -1.398372 17.437256 0.192995 -1.328179 16.535816 0.000000 0.000001 0.000002 -12.373870 14.369304 10.840021 16.775740 2.028858 4.224707 -1.686673 0.775704 -7.963377 -4.928481 -0.000006 0.000006 -0.000000 0.000001 0.000000 1.693151 -10.321364 3.560191 6.657464 -9.802121 -3.280425 -4.169026 -1.647500 2.922695 -7.276968 -0.000003 -0.000005 -0.000001 -0.000001 -0.000000 
0.176799 96.258240 -0.797436 -3.750024 -5.238976 -3.240017 3.313353 1.526608 2.229107 1.155680 0.337004 1.565521 1.126250 0.358054 1.563175 5.621473 -0.091245 0.452320 5.616442 -0.107043 0.487235 0.000001 0.000000 -0.000000 1.045153 -17.452272 -12.322877 3.893400 -20.016383 -69.777943 -0.000001 -1.475769 -0.000001 -33.256102 -1.417038 -6.180025 -0.670162 2.138134 4.840408 11.851390 25.416456 17.057134 -13.813208 3.538594 9.032372 0.000000 0.000001 0.000000 0.021090 -0.971746 -7.572521 0.267850 1.752893 -17.375725 0.057699 0.820958 -8.038004 -0.000001 -0.000000 -0.000000 -0.078364 2.656218 -15.671505 0.268774 1.755806 -17.405514 0.300537 1.853980 -18.413338 -0.000000 0.000001 -0.000000 0.136362 3.639367 -21.109688 0.386626 2.094789 -20.911886 0.283162 1.801021 -17.869032 0.000000 0.000000 -0.000001 0.922871 5.557705 -27.121766 0.268799 1.755844 -17.405878 0.241916 1.667705 -16.505890 -0.000000 -0.000000 -0.000001 1.199854 15.323867 14.704103 13.148982 27.586355 58.775622 0.000017 6.698199 0.000008 -20.193538 -0.491055 6.780222 -1.661843 -0.155028 -4.243582 12.720339 -29.843914 -16.125672 -15.548441 -3.563927 -12.705333 0.000000 0.000001 -0.000003 0.031600 1.276271 6.893976 0.216550 -1.404967 17.522167 0.047351 -0.663194 8.169168 0.000001 0.000001 0.000001 -0.136325 -2.211038 15.068989 0.214444 -1.398358 17.436882 0.239760 -1.476515 18.446271 -0.000001 0.000001 0.000001 0.030602 -3.075760 20.451038 0.308451 -1.668277 20.948523 0.225814 -1.434046 17.897085 0.000001 0.000003 0.000001 0.752235 -4.891258 26.493278 0.215680 -1.402238 17.486947 0.194157 -1.332049 16.585509 -0.000000 -0.000001 -0.000001 -12.366314 14.371423 10.823092 16.778116 2.029048 4.224650 -1.693769 0.775182 -7.950847 -4.928481 -0.000004 0.000007 -0.000000 0.000001 0.000000 1.635034 -10.320903 3.534182 6.779075 -9.816535 -3.280544 -4.233767 -1.648021 2.938994 -7.276977 0.000011 0.000000 -0.000000 -0.000004 -0.000000 
0.181669 96.259048 -0.780585 -3.740826 -5.242282 -3.224324 3.313289 1.526560 2.230173 1.155680 0.337004 1.565521 1.126249 0.358053 1.563177 5.601185 -0.091863 0.440692 5.596158 -0.107767 0.475545 0.000001 -0.000000 -0.000000 1.045145 -17.452277 -12.322863 3.877228 -20.040882 -69.788810 -0.000009 -1.495172 0.000009 -33.272228 -1.447383 -6.182338 -0.670829 2.130173 4.836178 11.851531 25.415595 17.056982 -13.813195 3.538588 9.032369 0.000001 -0.000001 -0.000001 0.022764 -0.974738 -7.543584 0.267875 1.752898 -17.375711 0.057682 0.820951 -8.038007 -0.000000 -0.000000 0.000001 -0.078512 2.653208 -15.642793 0.268780 1.755803 -17.405487 0.300540 1.853986 -18.413323 -0.000000 -0.000000 0.000001 0.135722 3.636451 -21.080783 0.386617 2.094784 -20.911903 0.283167 1.801021 -17.869008 -0.000000 -0.000001 -0.000001 0.922046 5.556405 -27.106816 0.268801 1.755850 -17.405878 0.241908 1.667691 -16.505874 0.000000 -0.000000 -0.000001 1.203718 15.309673 14.703075 13.141084 27.612279 58.767754 0.000001 6.710055 0.000006 -20.198206 -0.464844 6.789835 -1.660623 -0.151800 -4.276004 12.717309 -29.864613 -16.129618 -15.548417 -3.563935 -12.705331 0.000001 -0.000001 -0.000005 0.035753 1.261977 6.858610 0.216755 -1.405678 17.531299 0.047478 -0.663965 8.178609 0.000000 0.000001 0.000001 -0.135266 -2.213288 15.049676 0.214368 -1.398139 17.434235 0.239712 -1.476326 18.443611 0.000000 0.000003 0.000003 0.031888 -3.078463 20.433821 0.308942 -1.669565 20.965361 0.226246 -1.435353 17.914063 -0.000000 -0.000000 0.000000 0.757422 -4.902606 26.449715 0.215383 -1.401310 17.474991 0.193923 -1.331270 16.575363 -0.000000 -0.000003 0.000001 -12.363809 14.372762 10.801458 16.794470 2.030081 4.224659 -1.717661 0.776486 -7.932468 -4.928482 -0.000005 0.000004 -0.000000 -0.000001 -0.000000 1.594215 -10.319115 3.506093 6.861432 -9.822484 -3.280540 -4.285420 -1.647235 2.956111 -7.276977 -0.000020 -0.000004 -0.000001 -0.000000 -0.000000 
0.187247 96.260979 -0.763802 -3.727379 -5.249816 -3.206202 3.313227 1.526513 2.231195 1.155680 0.337003 1.565521 1.126249 0.358054 1.567131 5.565639 -0.092709 0.429317 5.560618 -0.108901 0.464108 -0.000001 -0.000000 -0.000000 1.045146 -17.452276 -12.322865 3.865031 -20.083343 -69.808939 -0.000014 -1.516613 -0.000008 -33.281449 -1.442511 -6.200198 -0.671114 2.126651 4.832985 11.851807 25.413749 17.056603 -13.813210 3.538587 9.032375 0.000000 0.000002 -0.000000 0.023382 -0.975820 -7.533177 0.267872 1.752896 -17.375709 0.057680 0.820956 -8.038004 0.000000 0.000000 0.000004 -0.078499 2.653114 -15.641994 0.268776 1.755805 -17.405504 0.300539 1.853980 -18.413331 0.000000 0.000001 0.000002 0.135489 3.635365 -21.070099 0.386632 2.094785 -20.911896 0.283154 1.801020 -17.869016 -0.000000 -0.000000 0.000000 0.921316 5.555248 -27.093571 0.268798 1.755845 -17.405871 0.241900 1.667690 -16.505874 0.000000 0.000001 -0.000000 1.208919 15.299658 14.692772 13.128068 27.625313 58.762979 0.000000 6.721365 0.000007 -20.203454 -0.443001 6.797846 -1.660560 -0.198646 -4.210191 12.687713 -29.805511 -16.139916 -15.548707 -3.562270 -12.704981 -0.000000 -0.000003 0.000001 0.064129 1.207015 6.706133 0.215536 -1.401845 17.481897 0.046878 -0.659744 8.126311 0.000001 -0.000001 -0.000002 -0.132663 -2.214450 14.954453 0.213554 -1.395571 17.401147 0.238844 -1.473743 18.410196 0.000001 0.000000 -0.000002 0.034508 -3.082983 20.376599 0.309653 -1.671401 20.989593 0.226823 -1.437135 17.936862 0.000001 0.000003 0.000002 0.755818 -4.900439 26.402629 0.214338 -1.397995 17.432255 0.192896 -1.327847 16.531611 0.000001 0.000001 -0.000001 -12.365847 14.373179 10.776616 16.815615 2.040667 4.224729 -1.744726 0.778318 -7.901624 -4.937462 0.000002 0.000005 -0.000000 -0.000000 -0.000000 1.567860 -10.316794 3.478196 6.901610 -9.823403 -3.280452 -4.314013 -1.645322 2.969756 -7.276973 -0.000001 -0.000004 -0.000001 0.000001 0.000000 
